<?xml version="1.0" encoding="iso-8859-1"?>
<!-- Generator: Adobe Illustrator 19.0.0, SVG Export Plug-In . SVG Version: 6.00 Build 0)  -->
<svg version="1.1" id="Layer_1" xmlns="http://www.w3.org/2000/svg" xmlns:xlink="http://www.w3.org/1999/xlink" x="0px" y="0px"
	 viewBox="0 0 512 512" style="enable-background:new 0 0 512 512;" xml:space="preserve">
<g>
	<g>
		<path d="M462.551,170.66c-13.962-47.224-46.434-51.331-59.72-50.874c-12.133,0.374-25.236,4.772-37.894,12.489
			c2.122-4.238,4.527-8.367,7.233-12.351l25.893-38.108c2.221-3.268,2.452-7.467,0.602-10.958c-1.849-3.491-5.452-5.66-9.403-5.66
			h-18.733l35.552-48.247c2.396-3.25,2.753-7.507,0.932-11.11S401.553,0,397.516,0H76.107c-4.045,0-7.687,2.244-9.505,5.857
			s-1.45,7.876,0.962,11.124l35.806,48.217H84.328c-3.951,0-7.555,2.169-9.404,5.66c-1.849,3.492-1.617,7.691,0.604,10.959
			l25.904,38.106c20.136,29.643,24.18,67.18,10.816,100.413l-6.136,15.265c-1.545,3.843,0.319,8.211,4.163,9.756
			c3.844,1.544,8.213-0.318,9.758-4.162l6.136-15.264c15.231-37.875,10.623-80.654-12.326-114.438L92.567,80.198h21.943
			l114.38,154.025c1.999,2.691,5.191,4.297,8.543,4.297c0.006,0,0.013,0,0.019,0c3.359-0.006,6.554-1.623,8.547-4.328l49.345-66.964
			c2.457-3.334,1.745-8.029-1.59-10.486c-3.335-2.457-8.03-1.745-10.489,1.59l-45.846,62.216L133.195,80.198h207.646l-32.682,44.352
			c-2.458,3.334-1.745,8.029,1.59,10.486c3.336,2.458,8.031,1.746,10.489-1.59l39.238-53.248h21.55l-21.266,31.298
			c-19.95,29.367-26.036,65.523-17.293,99.345c0.008,0.03,0.014,0.06,0.022,0.09c1.313,5.063,2.95,10.073,4.931,15l27.436,68.248
			c0.028,0.072,0.055,0.143,0.086,0.214l21.523,53.539c0.025,0.066,0.052,0.131,0.079,0.196l11.169,27.784
			c7.302,18.157,8.442,37.575,3.297,56.153c-1.106,3.992,1.235,8.124,5.228,9.229c0.67,0.185,1.343,0.273,2.006,0.273
			c3.288,0,6.305-2.179,7.225-5.501c6.03-21.777,4.704-44.514-3.836-65.75l-9.407-23.401c3.171-4.281,4.785-9.597,4.422-15.036
			c-2.51-37.496,9.802-52.188,24.057-69.201C456.863,243.394,476.973,219.393,462.551,170.66z M99.072,34.248L84.778,15h304.106
			L374.7,34.248H99.072z M351.894,65.198H122.056l-11.845-15.95h253.436L351.894,65.198z M361.339,220.337
			c-1.45-3.606-2.681-7.263-3.723-10.953c0.173-0.555,0.332-1.114,0.46-1.677c3.75-16.327,29.161-41.962,46.16-42.491
			c2.267-0.076,9.188-0.284,14.693,18.319c7.504,25.371,1.044,33.078-13.12,49.978c-8.026,9.582-17.473,20.868-24.519,36.451
			L361.339,220.337z M401.359,319.888l-11.648-28.974c5.837-21.743,17.369-35.557,27.606-47.779
			c14.969-17.859,25.784-30.763,15.998-63.854c-5.833-19.709-15.8-29.477-29.546-29.057c-17.312,0.539-37.831,16.26-50.132,33.386
			c-0.268-8.622,0.505-17.239,2.302-25.668c15.323-14.278,32.481-22.704,47.367-23.163c14.898-0.508,34.788,6.079,44.858,40.136
			c12.139,41.017-3.671,59.885-18.96,78.132C415.824,269.013,402.048,285.482,401.359,319.888z"/>
	</g>
</g>
<g>
	<g>
		<path d="M405.341,462.614c-3.24-2.58-7.959-2.047-10.541,1.193C377.994,484.901,352.831,497,325.764,497H147.837
			c-29.825,0-56.504-14.161-73.195-38.852c-16.668-24.655-19.863-54.631-8.767-82.238l40.146-99.862
			c1.545-3.843-0.319-8.211-4.163-9.756c-3.842-1.543-8.212,0.318-9.758,4.162l-40.146,99.862
			c-12.793,31.831-8.959,67.806,10.258,96.231C81.452,495.009,113.461,512,147.837,512h177.927
			c31.662,0,61.102-14.159,80.771-38.847C409.116,469.913,408.582,465.195,405.341,462.614z"/>
	</g>
</g>
<g>
	<g>
		<path d="M395.916,380.634l-24.75-61.564c-1.629-4.053-5.504-6.671-9.873-6.671H151.14l26.465-65.83
			c1.544-3.844-0.32-8.213-4.164-9.757c-3.844-1.543-8.212,0.318-9.758,4.162l-28.713,71.424h-22.675
			c-4.37,0-8.246,2.619-9.872,6.671l-24.749,61.563c-9.508,23.656-6.764,49.336,7.529,70.454
			c14.291,21.116,37.121,33.228,62.635,33.228h177.927c25.516,0,48.345-12.112,62.634-33.229S405.428,404.289,395.916,380.634z
			 M375.972,442.678c-11.453,16.927-29.753,26.635-50.208,26.635H147.837c-20.453,0-38.754-9.708-50.21-26.634
			c-11.452-16.923-13.651-37.499-6.033-56.454l23.649-58.828h13.697l-25.548,63.55c-8.554,21.283,0.486,38.303,4.77,44.632
			c4.283,6.328,16.722,21.048,39.675,21.048c4.143,0,7.501-3.357,7.501-7.5s-3.358-7.5-7.501-7.5
			c-15.766,0-24.308-10.108-27.25-14.454c-2.94-4.345-9.145-16.025-3.274-30.632l27.797-69.144h213.234l23.651,58.83
			C389.617,405.182,387.422,425.757,375.972,442.678z"/>
	</g>
</g>
<g>
	<g>
		<circle cx="186.77" cy="117.03" r="7.501"/>
	</g>
</g>
<g>
	<g>
		<circle cx="221.34" cy="117.03" r="7.5"/>
	</g>
</g>
<g>
	<g>
		<circle cx="255.9" cy="117.03" r="7.5"/>
	</g>
</g>
<g>
	<g>
		<circle cx="221.34" cy="163.57" r="7.5"/>
	</g>
</g>
<g>
	<g>
		<circle cx="255.9" cy="163.57" r="7.5"/>
	</g>
</g>
<g>
	<g>
		<circle cx="290.46" cy="117.03" r="7.501"/>
	</g>
</g>
<g>
	<g>
		<circle cx="169.55" cy="94.86" r="7.501"/>
	</g>
</g>
<g>
	<g>
		<circle cx="204.11" cy="94.86" r="7.5"/>
	</g>
</g>
<g>
	<g>
		<circle cx="238.68" cy="94.86" r="7.5"/>
	</g>
</g>
<g>
	<g>
		<circle cx="273.24" cy="94.86" r="7.5"/>
	</g>
</g>
<g>
	<g>
		<circle cx="204.11" cy="139.51" r="7.5"/>
	</g>
</g>
<g>
	<g>
		<circle cx="238.68" cy="139.51" r="7.5"/>
	</g>
</g>
<g>
	<g>
		<circle cx="238.68" cy="187.37" r="7.5"/>
	</g>
</g>
<g>
	<g>
		<circle cx="273.24" cy="139.51" r="7.5"/>
	</g>
</g>
<g>
	<g>
		<circle cx="307.8" cy="94.86" r="7.501"/>
	</g>
</g>
<g>
</g>
<g>
</g>
<g>
</g>
<g>
</g>
<g>
</g>
<g>
</g>
<g>
</g>
<g>
</g>
<g>
</g>
<g>
</g>
<g>
</g>
<g>
</g>
<g>
</g>
<g>
</g>
<g>
</g>
</svg>
